<?xml version="1.0" encoding="utf-8"?>
<!-- Generator: Adobe Illustrator 22.0.1, SVG Export Plug-In . SVG Version: 6.00 Build 0)  -->
<svg version="1.1" id="Layer_1" xmlns="http://www.w3.org/2000/svg" xmlns:xlink="http://www.w3.org/1999/xlink" x="0px" y="0px"
	 viewBox="0 0 800 800" style="enable-background:new 0 0 800 800;" xml:space="preserve">
<style type="text/css">
	.st0{fill:#219261;}
	.st1{fill:#FFFFFF;}
	.st2{fill:#219261;stroke:#219261;stroke-miterlimit:10;}
	.st3{stroke:#000000;stroke-miterlimit:10;}
</style>
<path id="Oval-1_1_" class="st0" d="M400,574c151.6,0,274.5-122.9,274.5-274.5S551.6,25,400,25S125.5,147.9,125.5,299.5
	S248.4,574,400,574z"/>
<path id="Fill-5" class="st1" d="M418.9,280.6c-5.1-0.8-21.7-3.8-35.7-4.1c2.3-28.5,6.1-61.2,12.7-95.8c3.2-0.3,6.5-0.5,9.9-0.5
	c28.7,0,48,18.9,48.3,45.5C454.5,259.3,418.9,280.6,418.9,280.6L418.9,280.6z M327.5,360.9c-12.3,2-24.6-17.6-24.6-52
	c0-32.7,11.6-73.7,37.2-100.5C325.5,269.8,346.9,357.7,327.5,360.9L327.5,360.9z M541.9,354.1c-9.1-55.9-75.9-63.6-75.9-63.6
	c15.6-6.1,46.4-34,47.9-66.4c2-42.6-36.1-82.4-103.7-82.4c-84,0-148.1,62.8-153.3,154.1c-0.8,14.6,0.7,53.9,15.3,82.7
	c17.2,39.7,46.3,68,76.1,61.5c26.2-5.7,32.4-30.1,32.4-58.6c0-4.3-1.6-34.9,0.8-80c2.1,5.3,5.5,10.2,10.2,13.2
	c13.5,3.7,27.9-1.2,38.9-7c0,0,36.9,9.8,36.9,38.1c0,16-13.2,27.9-29.5,29.1c-22.1,1.6-36.1-9-36.1-9c-7,1.2-17.6,15.6-17.6,26.6
	c0,23.4,28.7,55.3,83.2,51.6C510.9,441.2,550.9,408.8,541.9,354.1z"/>
<g>
	<path class="st2" d="M251.2,661.6v-66.6c0-2.6,0.7-4.7,2.2-6.3s3.4-2.4,5.8-2.4c1.6,0,2.9,0.4,4.1,1.1c1.2,0.7,2.2,1.7,2.8,3.1
		c0.7,1.3,1,2.8,1,4.5v21.2c2-1.7,4.4-3.1,7-4c2.7-0.9,5.4-1.4,8.1-1.4c5.4,0,10.1,1.5,14,4.4c3.9,2.9,6.8,6.7,8.8,11.5
		c2,4.7,3,9.7,3,15c0,4.9-1.1,9.7-3.3,14.2c-2.2,4.5-5.3,8.2-9.3,11c-4,2.8-8.6,4.2-13.7,4.2c-2.9,0-5.7-0.6-8.4-1.9
		c-2.7-1.2-4.8-3-6.2-5.3c-1.1,4.3-3.8,6.5-8,6.5c-2.4,0-4.3-0.8-5.8-2.4C251.9,666.3,251.2,664.2,251.2,661.6z M267.2,640.5
		c0,4.2,1.1,8,3.2,11.3c2.1,3.3,5.2,5,9.3,5c2.6,0,4.9-0.8,6.8-2.3c1.9-1.6,3.3-3.5,4.3-5.9c0.9-2.4,1.4-4.9,1.4-7.5
		c0-2.6-0.5-5.1-1.4-7.6c-0.9-2.4-2.4-4.4-4.2-6c-1.9-1.6-4.2-2.4-6.8-2.4c-2.7,0-5,0.7-6.9,2.2c-1.9,1.5-3.3,3.4-4.2,5.7
		C267.6,635.3,267.2,637.8,267.2,640.5z"/>
	<path class="st2" d="M363.9,646.1h-34c0.5,3.7,2.2,6.5,5,8.4c2.8,1.9,6.1,2.9,10.1,2.9c2.4,0,4.5-0.4,6.2-1.1
		c1.7-0.7,3.8-1.8,6.4-3.1c2.5-1.4,4.4-2,5.5-2c1.1,0,2.1,0.3,3.2,1c1,0.7,1.8,1.5,2.5,2.5c0.6,1,0.9,2.1,0.9,3.2
		c0,1.6-0.8,3.2-2.3,4.8c-1.5,1.6-3.6,3-6.1,4.2c-2.5,1.2-5.4,2.3-8.6,3c-3.2,0.8-6.2,1.1-9.1,1.1c-5.8,0-11-1.3-15.6-3.9
		c-4.6-2.6-8.1-6.2-10.6-10.7c-2.5-4.6-3.7-9.7-3.7-15.4c0-3.9,0.7-7.6,2.1-11.3c1.4-3.7,3.4-6.9,6-9.8s5.6-5.1,9.1-6.7
		c3.6-1.6,7.3-2.4,11.4-2.4c4.1,0,8,0.8,11.6,2.5c3.6,1.7,6.6,3.9,9.1,6.6s4.4,5.8,5.8,9.2c1.4,3.4,2.1,6.7,2.1,10
		C370.9,643.8,368.6,646.1,363.9,646.1z M329.6,635.7h25.4c-0.4-3.6-1.8-6.4-4-8.6c-2.2-2.2-5.1-3.3-8.7-3.3c-3.4,0-6.3,1.1-8.5,3.3
		C331.4,629.4,330,632.2,329.6,635.7z"/>
	<path class="st2" d="M433.3,621.7v38.5c0,3-0.4,5.5-1.3,7.3c-0.9,1.9-3,2.8-6.4,2.8c-2.2,0-3.8-0.6-5-1.7c-1.2-1.1-2-2.7-2.6-4.9
		c-4.2,4.8-9.3,7.3-15.2,7.3c-4.9,0-9.4-1.3-13.4-3.9s-7.2-6.1-9.5-10.7c-2.3-4.6-3.4-9.7-3.4-15.4c0-5.5,1.2-10.6,3.5-15.2
		c2.3-4.6,5.5-8.3,9.6-10.9s8.5-4,13.3-4c3,0,5.8,0.6,8.5,1.8c2.7,1.2,4.9,3,6.7,5.3c0.2-1.9,1.1-3.5,2.5-4.7s3.2-1.8,5.1-1.8
		c3.4,0,5.5,0.9,6.4,2.8C432.9,616.2,433.3,618.6,433.3,621.7z M392.4,641c0,2.6,0.5,5.2,1.4,7.6s2.4,4.4,4.3,5.9
		c1.9,1.5,4.2,2.2,6.9,2.2c3.9,0,6.9-1.6,9.1-4.7c2.2-3.2,3.2-6.8,3.2-11c0-2.6-0.5-5.1-1.4-7.6c-0.9-2.5-2.3-4.5-4.2-6
		c-1.9-1.6-4.1-2.3-6.7-2.3c-2.7,0-5,0.8-6.9,2.3c-1.9,1.5-3.4,3.5-4.3,6C392.9,635.9,392.4,638.4,392.4,641z"/>
	<path class="st2" d="M444.6,661.6v-41.5c0-2.6,0.7-4.7,2.2-6.3s3.4-2.4,5.8-2.4c2.1,0,3.7,0.5,5,1.5s2.1,2.4,2.4,4.2
		c3.1-4.3,8.2-6.4,15.4-6.4c4.2,0,7.9,0.8,11.3,2.5c3.3,1.7,5.9,4.1,7.8,7.2c1.9,3.1,2.8,6.9,2.8,11.2v29.8c0,1.7-0.3,3.2-1,4.5
		c-0.7,1.3-1.6,2.3-2.9,3.1c-1.2,0.7-2.6,1.1-4.1,1.1c-2.4,0-4.3-0.8-5.8-2.4c-1.5-1.6-2.2-3.7-2.2-6.3v-27.1c0-3.5-1-6.1-2.9-7.9
		c-1.9-1.8-4.4-2.7-7.5-2.7c-2.1,0-3.9,0.5-5.5,1.4c-1.6,0.9-2.7,2.2-3.5,3.8c-0.8,1.6-1.2,3.4-1.2,5.5v27.1c0,1.7-0.3,3.2-1,4.5
		c-0.7,1.3-1.6,2.3-2.9,3.1c-1.2,0.7-2.6,1.1-4.1,1.1c-2.4,0-4.3-0.8-5.8-2.4C445.4,666.3,444.6,664.2,444.6,661.6z"/>
	<path class="st2" d="M548.6,622.1c0,1.8-0.6,3.4-1.9,4.8c-1.2,1.4-2.8,2.1-4.6,2.1c-0.8,0-2.4-0.5-4.7-1.5c-2.3-1-4.1-1.8-5.4-2.3
		s-2.7-0.7-4.2-0.7s-2.8,0.4-3.9,1.1c-1,0.7-1.5,1.8-1.5,3.2c0,1.5,1.6,2.9,4.8,4.3c3.2,1.4,6.5,2.7,10.1,4.2
		c3.6,1.4,6.6,3.3,9.1,5.7c2.5,2.4,3.8,5.6,3.8,9.7c0,3.5-0.9,6.6-2.8,9.4c-1.9,2.8-4.6,4.9-8,6.5c-3.5,1.6-7.4,2.4-11.9,2.4
		c-3.1,0-6.4-0.5-9.9-1.6c-3.5-1.1-6.4-2.5-8.8-4.4c-2.4-1.9-3.6-3.9-3.6-6.1c0-1.4,0.6-2.9,1.9-4.5s2.9-2.4,5-2.4
		c1.4,0,2.7,0.2,3.8,0.7c1.1,0.4,2.4,1.1,4.1,2c1.6,0.9,3.1,1.6,4.3,2c1.2,0.4,2.7,0.6,4.4,0.6c2.3,0,4-0.4,4.9-1.1
		c0.9-0.7,1.4-1.8,1.4-3.4c0-1.5-1.5-2.9-4.6-4.2s-6.4-2.7-10.1-4.2c-3.7-1.5-6.8-3.4-9.3-5.9c-2.5-2.4-3.7-5.6-3.7-9.7
		c0-3.6,0.9-6.7,2.8-9.4c1.8-2.7,4.4-4.9,7.7-6.4c3.3-1.5,7-2.3,11.2-2.3c2.9,0,5.9,0.4,9,1.3c3.1,0.8,5.7,2.1,7.8,3.9
		S548.6,619.7,548.6,622.1z"/>
	<path class="st3" d="M161.6,724.7c0,1.8-0.6,3.4-1.9,4.8c-1.2,1.4-2.8,2.1-4.6,2.1c-0.8,0-2.4-0.5-4.7-1.5c-2.3-1-4.1-1.8-5.4-2.3
		s-2.7-0.7-4.2-0.7s-2.8,0.4-3.9,1.1c-1,0.7-1.5,1.8-1.5,3.2c0,1.5,1.6,2.9,4.8,4.3c3.2,1.4,6.5,2.7,10.1,4.2
		c3.6,1.4,6.6,3.3,9.1,5.7c2.5,2.4,3.8,5.6,3.8,9.7c0,3.5-0.9,6.6-2.8,9.4c-1.9,2.8-4.6,4.9-8,6.5c-3.5,1.6-7.4,2.4-11.9,2.4
		c-3.1,0-6.4-0.5-9.9-1.6c-3.5-1.1-6.4-2.5-8.8-4.4c-2.4-1.9-3.6-3.9-3.6-6.1c0-1.4,0.6-2.9,1.9-4.5c1.3-1.6,2.9-2.4,5-2.4
		c1.4,0,2.7,0.2,3.8,0.7c1.1,0.4,2.4,1.1,4.1,2c1.6,0.9,3.1,1.6,4.3,2c1.2,0.4,2.7,0.6,4.4,0.6c2.3,0,4-0.4,4.9-1.1
		c0.9-0.7,1.4-1.8,1.4-3.4c0-1.5-1.5-2.9-4.6-4.2c-3.1-1.3-6.4-2.7-10.1-4.2c-3.7-1.5-6.8-3.4-9.3-5.9s-3.7-5.6-3.7-9.7
		c0-3.6,0.9-6.7,2.8-9.4c1.8-2.7,4.4-4.9,7.7-6.4c3.3-1.5,7-2.3,11.2-2.3c2.9,0,5.9,0.4,9,1.3c3.1,0.8,5.7,2.1,7.8,3.9
		S161.6,722.3,161.6,724.7z"/>
	<path class="st3" d="M178.6,690.8c1.6,0,3.1,0.4,4.4,1.2c1.4,0.8,2.5,1.9,3.3,3.2c0.8,1.3,1.2,2.7,1.2,4.1c0,2.4-0.9,4.5-2.6,6.3
		c-1.8,1.8-3.9,2.7-6.4,2.7c-2.3,0-4.4-0.9-6.2-2.7c-1.8-1.8-2.7-3.9-2.7-6.2c0-2.2,0.9-4.2,2.7-5.9
		C174.2,691.6,176.3,690.8,178.6,690.8z M170.7,764.2v-41.5c0-2.6,0.7-4.7,2.2-6.3s3.4-2.4,5.8-2.4c1.6,0,2.9,0.4,4.1,1.1
		c1.2,0.7,2.2,1.7,2.8,3.1c0.7,1.3,1,2.8,1,4.5v41.5c0,1.7-0.3,3.2-1,4.5c-0.7,1.3-1.6,2.3-2.9,3.1c-1.2,0.7-2.6,1.1-4.1,1.1
		c-2.4,0-4.3-0.8-5.8-2.4C171.4,768.9,170.7,766.8,170.7,764.2z"/>
	<path class="st3" d="M197.7,764.2v-41.5c0-2.6,0.7-4.7,2.2-6.3s3.4-2.4,5.8-2.4c2.1,0,3.7,0.5,5,1.5s2.1,2.5,2.4,4.3
		c4-4.3,9-6.5,14.8-6.5c6.7,0,12.2,2.6,16.5,7.9c2.1-2.4,4.8-4.3,8-5.7s6.1-2.2,8.9-2.2c4.4,0,8.2,0.8,11.5,2.4
		c3.3,1.6,5.8,4,7.7,7.2c1.8,3.2,2.7,7,2.7,11.4v29.8c0,1.7-0.3,3.2-1,4.5c-0.7,1.3-1.6,2.3-2.9,3.1c-1.2,0.7-2.6,1.1-4.1,1.1
		c-2.4,0-4.3-0.8-5.8-2.4c-1.5-1.6-2.2-3.7-2.2-6.3v-27.1c0-2.1-0.4-4-1.1-5.5c-0.7-1.6-1.8-2.8-3.2-3.7s-3.1-1.4-5-1.4
		c-2.9,0-5.2,1-6.9,2.9c-1.7,2-2.5,4.5-2.5,7.7v27.1c0,1.7-0.3,3.2-1,4.5c-0.7,1.3-1.6,2.3-2.9,3.1c-1.2,0.7-2.6,1.1-4.1,1.1
		c-2.4,0-4.3-0.8-5.8-2.4c-1.5-1.6-2.2-3.7-2.2-6.3v-27.1c0-2.1-0.4-4-1.1-5.5c-0.7-1.6-1.8-2.8-3.2-3.7c-1.4-0.9-3.1-1.4-5-1.4
		c-2.1,0-3.9,0.4-5.3,1.3c-1.4,0.9-2.4,2.1-3.1,3.7c-0.7,1.6-1,3.4-1,5.6v27.1c0,1.7-0.3,3.2-1,4.5c-0.7,1.3-1.6,2.3-2.9,3.1
		c-1.2,0.7-2.6,1.1-4.1,1.1c-2.4,0-4.3-0.8-5.8-2.4C198.5,768.9,197.7,766.8,197.7,764.2z"/>
	<path class="st3" d="M294.4,787.2v-64.5c0-2.6,0.7-4.7,2.2-6.3s3.4-2.4,5.8-2.4c4.3,0,6.9,2.2,8,6.5c1.5-2.3,3.6-4.1,6.3-5.3
		c2.7-1.2,5.7-1.8,8.8-1.8c5.4,0,10.1,1.5,14,4.4c3.9,2.9,6.8,6.7,8.8,11.5c2,4.7,3,9.7,3,15c0,4.9-1.1,9.7-3.3,14.2
		c-2.2,4.5-5.3,8.2-9.3,11c-4,2.8-8.6,4.2-13.7,4.2c-2.5,0-5.1-0.5-7.6-1.4c-2.6-0.9-4.9-2.3-7-4v19c0,1.6-0.3,3.1-1,4.4
		c-0.7,1.3-1.6,2.4-2.9,3.1c-1.2,0.7-2.6,1.1-4.1,1.1c-2.4,0-4.3-0.8-5.8-2.3C295.1,791.9,294.4,789.8,294.4,787.2z M310.3,743.1
		c0,4.2,1.1,8,3.2,11.3c2.1,3.3,5.2,5,9.3,5c2.6,0,4.9-0.8,6.8-2.3s3.3-3.5,4.3-5.9c0.9-2.4,1.4-4.9,1.4-7.5c0-2.6-0.5-5.1-1.4-7.6
		c-0.9-2.4-2.4-4.4-4.2-6c-1.9-1.6-4.2-2.4-6.8-2.4c-2.7,0-5,0.7-6.9,2.2s-3.3,3.4-4.2,5.7C310.8,737.9,310.3,740.4,310.3,743.1z"/>
	<path class="st3" d="M360,764.2v-66.6c0-2.6,0.7-4.7,2.2-6.3s3.4-2.4,5.8-2.4c1.5,0,2.9,0.4,4.1,1.1c1.2,0.7,2.2,1.7,2.8,3.1
		c0.7,1.3,1,2.8,1,4.5v66.6c0,1.7-0.3,3.2-1,4.5c-0.7,1.3-1.6,2.3-2.9,3.1c-1.2,0.7-2.6,1.1-4.1,1.1c-2.4,0-4.3-0.8-5.8-2.4
		C360.7,768.9,360,766.8,360,764.2z"/>
	<path class="st3" d="M433.9,748.7h-34c0.5,3.7,2.2,6.5,5,8.4c2.8,1.9,6.1,2.9,10.1,2.9c2.4,0,4.5-0.4,6.2-1.1
		c1.7-0.7,3.8-1.8,6.4-3.1c2.5-1.4,4.4-2,5.5-2c1.1,0,2.1,0.3,3.2,1c1,0.7,1.8,1.5,2.5,2.5c0.6,1,0.9,2.1,0.9,3.2
		c0,1.6-0.8,3.2-2.3,4.8c-1.5,1.6-3.6,3-6.1,4.2c-2.5,1.2-5.4,2.3-8.6,3c-3.2,0.8-6.2,1.1-9.1,1.1c-5.8,0-11-1.3-15.6-3.9
		c-4.6-2.6-8.1-6.2-10.6-10.7c-2.5-4.6-3.7-9.7-3.7-15.4c0-3.9,0.7-7.6,2.1-11.3c1.4-3.7,3.4-6.9,6-9.8c2.5-2.9,5.6-5.1,9.1-6.7
		c3.6-1.6,7.3-2.4,11.4-2.4c4.1,0,8,0.8,11.6,2.5c3.6,1.7,6.6,3.9,9.1,6.6s4.4,5.8,5.8,9.2c1.4,3.4,2.1,6.7,2.1,10
		C440.9,746.4,438.6,748.7,433.9,748.7z M399.5,738.3h25.4c-0.4-3.6-1.8-6.4-4-8.6c-2.2-2.2-5.1-3.3-8.7-3.3c-3.4,0-6.3,1.1-8.5,3.3
		C401.4,732,400,734.8,399.5,738.3z"/>
	<path class="st2" d="M495.6,748.7h-34c0.5,3.7,2.2,6.5,5,8.4c2.8,1.9,6.1,2.9,10.1,2.9c2.4,0,4.5-0.4,6.2-1.1
		c1.7-0.7,3.8-1.8,6.4-3.1c2.5-1.4,4.4-2,5.5-2c1.1,0,2.1,0.3,3.2,1c1,0.7,1.8,1.5,2.5,2.5c0.6,1,0.9,2.1,0.9,3.2
		c0,1.6-0.8,3.2-2.3,4.8c-1.5,1.6-3.6,3-6.1,4.2c-2.5,1.2-5.4,2.3-8.6,3c-3.2,0.8-6.2,1.1-9.1,1.1c-5.8,0-11-1.3-15.6-3.9
		c-4.6-2.6-8.1-6.2-10.6-10.7c-2.5-4.6-3.7-9.7-3.7-15.4c0-3.9,0.7-7.6,2.1-11.3c1.4-3.7,3.4-6.9,6-9.8c2.5-2.9,5.6-5.1,9.1-6.7
		c3.6-1.6,7.3-2.4,11.4-2.4c4.1,0,8,0.8,11.6,2.5c3.6,1.7,6.6,3.9,9.1,6.6s4.4,5.8,5.8,9.2c1.4,3.4,2.1,6.7,2.1,10
		C502.6,746.4,500.3,748.7,495.6,748.7z M461.3,738.3h25.4c-0.4-3.6-1.8-6.4-4-8.6c-2.2-2.2-5.1-3.3-8.7-3.3c-3.4,0-6.3,1.1-8.5,3.3
		C463.1,732,461.7,734.8,461.3,738.3z"/>
	<path class="st2" d="M565.1,697.7v66.6c0,1.7-0.3,3.2-1,4.5c-0.7,1.3-1.6,2.3-2.9,3.1c-1.2,0.7-2.6,1.1-4.1,1.1
		c-4.3,0-6.9-2.2-8-6.5c-1.5,2.3-3.6,4-6.2,5.3c-2.7,1.2-5.5,1.9-8.4,1.9c-5.1,0-9.6-1.4-13.7-4.2c-4-2.8-7.1-6.4-9.3-11
		c-2.2-4.5-3.3-9.3-3.3-14.1c0-5.3,1-10.3,2.9-15c1.9-4.7,4.9-8.5,8.8-11.5c3.9-2.9,8.6-4.4,14-4.4c1.8,0,3.6,0.2,5.4,0.6
		c1.8,0.4,3.5,1,5.1,1.8c1.6,0.8,3.2,1.8,4.7,3v-21.2c0-2.6,0.7-4.7,2.2-6.3s3.4-2.4,5.8-2.4c1.6,0,2.9,0.4,4.1,1.1
		c1.2,0.7,2.2,1.7,2.8,3.1C564.7,694.5,565.1,696,565.1,697.7z M549.1,743.1c0-4.2-1.1-7.8-3.3-10.8c-2.2-3-5.3-4.5-9.3-4.5
		c-2.6,0-4.8,0.8-6.7,2.4c-1.9,1.6-3.3,3.6-4.2,6c-0.9,2.4-1.4,5-1.4,7.6c0,1.8,0.3,3.6,0.8,5.6c0.5,1.9,1.3,3.6,2.4,5.2
		c1,1.5,2.4,2.8,3.9,3.6s3.3,1.3,5.3,1.3c2.7,0,5-0.8,6.9-2.4c1.9-1.6,3.3-3.6,4.2-6.2S549.1,745.7,549.1,743.1z"/>
	<path class="st2" d="M584.1,690.8c1.6,0,3.1,0.4,4.4,1.2c1.4,0.8,2.5,1.9,3.3,3.2c0.8,1.3,1.2,2.7,1.2,4.1c0,2.4-0.9,4.5-2.6,6.3
		c-1.8,1.8-3.9,2.7-6.4,2.7c-2.3,0-4.4-0.9-6.2-2.7c-1.8-1.8-2.7-3.9-2.7-6.2c0-2.2,0.9-4.2,2.7-5.9
		C579.7,691.6,581.8,690.8,584.1,690.8z M576.1,764.2v-41.5c0-2.6,0.7-4.7,2.2-6.3s3.4-2.4,5.8-2.4c1.5,0,2.9,0.4,4.1,1.1
		c1.2,0.7,2.2,1.7,2.8,3.1c0.7,1.3,1,2.8,1,4.5v41.5c0,1.7-0.3,3.2-1,4.5c-0.7,1.3-1.6,2.3-2.9,3.1c-1.2,0.7-2.6,1.1-4.1,1.1
		c-2.4,0-4.3-0.8-5.8-2.4C576.9,768.9,576.1,766.8,576.1,764.2z"/>
	<path class="st2" d="M607.1,764.2v-35.9h-3.6c-2.1,0-3.8-0.6-5.1-1.9s-1.9-2.9-1.9-5c0-1.9,0.7-3.5,2-4.8c1.3-1.3,3-1.9,5-1.9h3.6
		v-9.3c0-2.6,0.7-4.7,2.2-6.3c1.5-1.6,3.4-2.4,5.8-2.4c1.5,0,2.9,0.4,4.1,1.1c1.2,0.7,2.2,1.7,2.8,3.1c0.7,1.3,1,2.8,1,4.5v9.3h4.5
		c2.2,0,4,0.6,5.5,1.7c1.4,1.1,2.2,2.8,2.2,5.1c0,2.3-0.7,4-2.1,5.2c-1.4,1.1-3.3,1.7-5.5,1.7h-4.5v35.9c0,1.7-0.3,3.2-1,4.5
		c-0.7,1.3-1.6,2.3-2.9,3.1c-1.2,0.7-2.6,1.1-4.1,1.1c-2.4,0-4.3-0.8-5.8-2.4S607.1,766.8,607.1,764.2z"/>
	<path class="st2" d="M678.3,724.7c0,1.8-0.6,3.4-1.9,4.8c-1.2,1.4-2.8,2.1-4.6,2.1c-0.8,0-2.4-0.5-4.7-1.5c-2.3-1-4.1-1.8-5.4-2.3
		s-2.7-0.7-4.2-0.7s-2.8,0.4-3.9,1.1c-1,0.7-1.5,1.8-1.5,3.2c0,1.5,1.6,2.9,4.8,4.3c3.2,1.4,6.5,2.7,10.1,4.2
		c3.6,1.4,6.6,3.3,9.1,5.7c2.5,2.4,3.8,5.6,3.8,9.7c0,3.5-0.9,6.6-2.8,9.4c-1.9,2.8-4.6,4.9-8,6.5c-3.5,1.6-7.4,2.4-11.9,2.4
		c-3.1,0-6.4-0.5-9.9-1.6c-3.5-1.1-6.4-2.5-8.8-4.4c-2.4-1.9-3.6-3.9-3.6-6.1c0-1.4,0.6-2.9,1.9-4.5s2.9-2.4,5-2.4
		c1.4,0,2.7,0.2,3.8,0.7c1.1,0.4,2.4,1.1,4.1,2c1.6,0.9,3.1,1.6,4.3,2c1.2,0.4,2.7,0.6,4.4,0.6c2.3,0,4-0.4,4.9-1.1
		c0.9-0.7,1.4-1.8,1.4-3.4c0-1.5-1.5-2.9-4.6-4.2s-6.4-2.7-10.1-4.2c-3.7-1.5-6.8-3.4-9.3-5.9c-2.5-2.4-3.7-5.6-3.7-9.7
		c0-3.6,0.9-6.7,2.8-9.4c1.8-2.7,4.4-4.9,7.7-6.4c3.3-1.5,7-2.3,11.2-2.3c2.9,0,5.9,0.4,9,1.3c3.1,0.8,5.7,2.1,7.8,3.9
		S678.3,722.3,678.3,724.7z"/>
</g>
</svg>
